<?xml version="1.0" encoding="UTF-8" standalone="no"?>
<svg width="104px" height="106px" viewBox="0 0 104 106" version="1.1" xmlns="http://www.w3.org/2000/svg" xmlns:xlink="http://www.w3.org/1999/xlink" xmlns:sketch="http://www.bohemiancoding.com/sketch/ns">
    <!-- Generator: Sketch 3.2.2 (9983) - http://www.bohemiancoding.com/sketch -->
    <title>Path 33</title>
    <desc>Created with Sketch.</desc>
    <defs></defs>
    <g id="Page" stroke="none" stroke-width="1" fill="none" fill-rule="evenodd" sketch:type="MSPage">
        <g id="Artboard-1" sketch:type="MSArtboardGroup" transform="translate(-453.000000, -2172.000000)" stroke="#FFFFFF" stroke-width="3">
            <path d="M488.318425,2241.12967 L476.189557,2241.12967 C476.189557,2241.12967 455,2239.82864 455,2219.18552 C455,2201.33325 472.957499,2198.5424 472.957499,2198.5424 C472.957499,2198.5424 473.72165,2174 498.786498,2174 C513.893132,2174 520.319396,2187.91472 520.319396,2187.91472 C520.319396,2187.91472 535.12702,2187.53206 535.127017,2201.33325 C545.169567,2201.33325 555.000058,2209.78234 555,2221.021 C554.999937,2233.40764 545.637262,2240.90008 536.659149,2240.90008 C527.681036,2240.90008 519.085002,2240.59395 519.085002,2240.59395 L519.085002,2254.39617 L527.450535,2254.39617 L511.978928,2275 L496.361156,2254.39617 L503.687051,2254.39617 L503.687051,2227.05705 L512.024788,2227.05705 L496.02125,2205.23254 L480.828999,2227.05705 L488.191919,2227.05705 L488.318425,2241.12967 Z" id="Path-33" sketch:type="MSShapeGroup"></path>
        </g>
    </g>
</svg>