<?xml version="1.0" encoding="UTF-8" standalone="no"?>
<svg width="84px" height="91px" viewBox="0 0 84 91" version="1.1" xmlns="http://www.w3.org/2000/svg" xmlns:xlink="http://www.w3.org/1999/xlink" xmlns:sketch="http://www.bohemiancoding.com/sketch/ns">
    <!-- Generator: Sketch 3.2.2 (9983) - http://www.bohemiancoding.com/sketch -->
    <title></title>
    <desc>Created with Sketch.</desc>
    <defs></defs>
    <g id="Page" stroke="none" stroke-width="1" fill="none" fill-rule="evenodd" sketch:type="MSPage">
        <g id="Artboard-1" sketch:type="MSArtboardGroup" transform="translate(-1246.000000, -2183.000000)" stroke="#FFFFFF" stroke-width="3">
            <path d="M1266.46154,2259.57143 C1266.46154,2257.85602 1265.86058,2256.39147 1264.65865,2255.17773 C1263.45672,2253.964 1262.00642,2253.35714 1260.30769,2253.35714 C1258.60897,2253.35714 1257.15866,2253.964 1255.95673,2255.17773 C1254.7548,2256.39147 1254.15385,2257.85602 1254.15385,2259.57143 C1254.15385,2261.28684 1254.7548,2262.75139 1255.95673,2263.96512 C1257.15866,2265.17886 1258.60897,2265.78571 1260.30769,2265.78571 C1262.00642,2265.78571 1263.45672,2265.17886 1264.65865,2263.96512 C1265.86058,2262.75139 1266.46154,2261.28684 1266.46154,2259.57143 L1266.46154,2259.57143 Z M1284.92308,2259.57143 C1284.92308,2257.85602 1284.32212,2256.39147 1283.12019,2255.17773 C1281.91826,2253.964 1280.46796,2253.35714 1278.76923,2253.35714 C1277.0705,2253.35714 1275.6202,2253.964 1274.41827,2255.17773 C1273.21634,2256.39147 1272.61538,2257.85602 1272.61538,2259.57143 C1272.61538,2261.28684 1273.21634,2262.75139 1274.41827,2263.96512 C1275.6202,2265.17886 1277.0705,2265.78571 1278.76923,2265.78571 C1280.46796,2265.78571 1281.91826,2265.17886 1283.12019,2263.96512 C1284.32212,2262.75139 1284.92308,2261.28684 1284.92308,2259.57143 L1284.92308,2259.57143 Z M1266.46154,2240.92857 C1266.46154,2239.21316 1265.86058,2237.74861 1264.65865,2236.53488 C1263.45672,2235.32114 1262.00642,2234.71429 1260.30769,2234.71429 C1258.60897,2234.71429 1257.15866,2235.32114 1255.95673,2236.53488 C1254.7548,2237.74861 1254.15385,2239.21316 1254.15385,2240.92857 C1254.15385,2242.64398 1254.7548,2244.10853 1255.95673,2245.32227 C1257.15866,2246.536 1258.60897,2247.14286 1260.30769,2247.14286 C1262.00642,2247.14286 1263.45672,2246.536 1264.65865,2245.32227 C1265.86058,2244.10853 1266.46154,2242.64398 1266.46154,2240.92857 L1266.46154,2240.92857 Z M1303.38462,2259.57143 C1303.38462,2257.85602 1302.78366,2256.39147 1301.58173,2255.17773 C1300.3798,2253.964 1298.9295,2253.35714 1297.23077,2253.35714 C1295.53204,2253.35714 1294.08174,2253.964 1292.87981,2255.17773 C1291.67788,2256.39147 1291.07692,2257.85602 1291.07692,2259.57143 C1291.07692,2261.28684 1291.67788,2262.75139 1292.87981,2263.96512 C1294.08174,2265.17886 1295.53204,2265.78571 1297.23077,2265.78571 C1298.9295,2265.78571 1300.3798,2265.17886 1301.58173,2263.96512 C1302.78366,2262.75139 1303.38462,2261.28684 1303.38462,2259.57143 L1303.38462,2259.57143 Z M1284.92308,2240.92857 C1284.92308,2239.21316 1284.32212,2237.74861 1283.12019,2236.53488 C1281.91826,2235.32114 1280.46796,2234.71429 1278.76923,2234.71429 C1277.0705,2234.71429 1275.6202,2235.32114 1274.41827,2236.53488 C1273.21634,2237.74861 1272.61538,2239.21316 1272.61538,2240.92857 C1272.61538,2242.64398 1273.21634,2244.10853 1274.41827,2245.32227 C1275.6202,2246.536 1277.0705,2247.14286 1278.76923,2247.14286 C1280.46796,2247.14286 1281.91826,2246.536 1283.12019,2245.32227 C1284.32212,2244.10853 1284.92308,2242.64398 1284.92308,2240.92857 L1284.92308,2240.92857 Z M1266.46154,2222.28571 C1266.46154,2220.5703 1265.86058,2219.10575 1264.65865,2217.89202 C1263.45672,2216.67829 1262.00642,2216.07143 1260.30769,2216.07143 C1258.60897,2216.07143 1257.15866,2216.67829 1255.95673,2217.89202 C1254.7548,2219.10575 1254.15385,2220.5703 1254.15385,2222.28571 C1254.15385,2224.00112 1254.7548,2225.46567 1255.95673,2226.67941 C1257.15866,2227.89314 1258.60897,2228.5 1260.30769,2228.5 C1262.00642,2228.5 1263.45672,2227.89314 1264.65865,2226.67941 C1265.86058,2225.46567 1266.46154,2224.00112 1266.46154,2222.28571 L1266.46154,2222.28571 Z M1303.38462,2240.92857 C1303.38462,2239.21316 1302.78366,2237.74861 1301.58173,2236.53488 C1300.3798,2235.32114 1298.9295,2234.71429 1297.23077,2234.71429 C1295.53204,2234.71429 1294.08174,2235.32114 1292.87981,2236.53488 C1291.67788,2237.74861 1291.07692,2239.21316 1291.07692,2240.92857 C1291.07692,2242.64398 1291.67788,2244.10853 1292.87981,2245.32227 C1294.08174,2246.536 1295.53204,2247.14286 1297.23077,2247.14286 C1298.9295,2247.14286 1300.3798,2246.536 1301.58173,2245.32227 C1302.78366,2244.10853 1303.38462,2242.64398 1303.38462,2240.92857 L1303.38462,2240.92857 Z M1284.92308,2222.28571 C1284.92308,2220.5703 1284.32212,2219.10575 1283.12019,2217.89202 C1281.91826,2216.67829 1280.46796,2216.07143 1278.76923,2216.07143 C1277.0705,2216.07143 1275.6202,2216.67829 1274.41827,2217.89202 C1273.21634,2219.10575 1272.61538,2220.5703 1272.61538,2222.28571 C1272.61538,2224.00112 1273.21634,2225.46567 1274.41827,2226.67941 C1275.6202,2227.89314 1277.0705,2228.5 1278.76923,2228.5 C1280.46796,2228.5 1281.91826,2227.89314 1283.12019,2226.67941 C1284.32212,2225.46567 1284.92308,2224.00112 1284.92308,2222.28571 L1284.92308,2222.28571 Z M1321.84615,2259.57143 L1321.84615,2240.92857 C1321.84615,2239.24553 1321.23719,2237.78907 1320.01923,2236.55915 C1318.80128,2235.32923 1317.35898,2234.71429 1315.69231,2234.71429 C1314.02563,2234.71429 1312.58334,2235.32923 1311.36538,2236.55915 C1310.14743,2237.78907 1309.53846,2239.24553 1309.53846,2240.92857 L1309.53846,2259.57143 C1309.53846,2261.25447 1310.14743,2262.71093 1311.36538,2263.94085 C1312.58334,2265.17077 1314.02563,2265.78571 1315.69231,2265.78571 C1317.35898,2265.78571 1318.80128,2265.17077 1320.01923,2263.94085 C1321.23719,2262.71093 1321.84615,2261.25447 1321.84615,2259.57143 L1321.84615,2259.57143 Z M1303.38462,2222.28571 C1303.38462,2220.5703 1302.78366,2219.10575 1301.58173,2217.89202 C1300.3798,2216.67829 1298.9295,2216.07143 1297.23077,2216.07143 C1295.53204,2216.07143 1294.08174,2216.67829 1292.87981,2217.89202 C1291.67788,2219.10575 1291.07692,2220.5703 1291.07692,2222.28571 C1291.07692,2224.00112 1291.67788,2225.46567 1292.87981,2226.67941 C1294.08174,2227.89314 1295.53204,2228.5 1297.23077,2228.5 C1298.9295,2228.5 1300.3798,2227.89314 1301.58173,2226.67941 C1302.78366,2225.46567 1303.38462,2224.00112 1303.38462,2222.28571 L1303.38462,2222.28571 Z M1321.84615,2206.75 L1321.84615,2194.32143 C1321.84615,2193.47991 1321.54167,2192.75168 1320.93269,2192.13672 C1320.32371,2191.52176 1319.60257,2191.21429 1318.76923,2191.21429 L1257.23077,2191.21429 C1256.39743,2191.21429 1255.67629,2191.52176 1255.06731,2192.13672 C1254.45833,2192.75168 1254.15385,2193.47991 1254.15385,2194.32143 L1254.15385,2206.75 C1254.15385,2207.59152 1254.45833,2208.31975 1255.06731,2208.93471 C1255.67629,2209.54967 1256.39743,2209.85714 1257.23077,2209.85714 L1318.76923,2209.85714 C1319.60257,2209.85714 1320.32371,2209.54967 1320.93269,2208.93471 C1321.54167,2208.31975 1321.84615,2207.59152 1321.84615,2206.75 L1321.84615,2206.75 Z M1321.84615,2222.28571 C1321.84615,2220.5703 1321.2452,2219.10575 1320.04327,2217.89202 C1318.84134,2216.67829 1317.39103,2216.07143 1315.69231,2216.07143 C1313.99358,2216.07143 1312.54328,2216.67829 1311.34135,2217.89202 C1310.13942,2219.10575 1309.53846,2220.5703 1309.53846,2222.28571 C1309.53846,2224.00112 1310.13942,2225.46567 1311.34135,2226.67941 C1312.54328,2227.89314 1313.99358,2228.5 1315.69231,2228.5 C1317.39103,2228.5 1318.84134,2227.89314 1320.04327,2226.67941 C1321.2452,2225.46567 1321.84615,2224.00112 1321.84615,2222.28571 L1321.84615,2222.28571 Z M1328,2191.21429 L1328,2265.78571 C1328,2267.46876 1327.39103,2268.92522 1326.17308,2270.15513 C1324.95512,2271.38505 1323.51283,2272 1321.84615,2272 L1254.15385,2272 C1252.48717,2272 1251.04488,2271.38505 1249.82692,2270.15513 C1248.60897,2268.92522 1248,2267.46876 1248,2265.78571 L1248,2191.21429 C1248,2189.53124 1248.60897,2188.07478 1249.82692,2186.84487 C1251.04488,2185.61495 1252.48717,2185 1254.15385,2185 L1321.84615,2185 C1323.51283,2185 1324.95512,2185.61495 1326.17308,2186.84487 C1327.39103,2188.07478 1328,2189.53124 1328,2191.21429 L1328,2191.21429 Z" id="" sketch:type="MSShapeGroup"></path>
        </g>
    </g>
</svg>