<?xml version="1.0" encoding="UTF-8" standalone="no"?>
<svg width="101px" height="124px" viewBox="0 0 101 124" version="1.1" xmlns="http://www.w3.org/2000/svg" xmlns:xlink="http://www.w3.org/1999/xlink" xmlns:sketch="http://www.bohemiancoding.com/sketch/ns">
    <!-- Generator: Sketch 3.2.2 (9983) - http://www.bohemiancoding.com/sketch -->
    <title>Group</title>
    <desc>Created with Sketch.</desc>
    <defs></defs>
    <g id="Page" stroke="none" stroke-width="1" fill="none" fill-rule="evenodd" sketch:type="MSPage">
        <g id="Artboard-1" sketch:type="MSArtboardGroup" transform="translate(-843.000000, -2511.000000)" stroke="#FFFFFF">
            <g id="Group" sketch:type="MSLayerGroup" transform="translate(845.000000, 2513.000000)">
                <polygon id="Triangle-1" stroke-width="3" sketch:type="MSShapeGroup" points="48.1168831 0 92.5324675 25.7142857 3.7012987 25.7142857 "></polygon>
                <rect id="Rectangle-9" stroke-width="3" sketch:type="MSShapeGroup" x="9.87012987" y="35.5102041" width="11.1038961" height="40.4081633"></rect>
                <rect id="Rectangle-12" stroke-width="3" sketch:type="MSShapeGroup" x="51.8181818" y="35.5102041" width="11.1038961" height="40.4081633"></rect>
                <rect id="Rectangle-12" stroke-width="3" sketch:type="MSShapeGroup" x="73.5440341" y="35.5102041" width="11.1038961" height="40.4081633"></rect>
                <path d="M46.2662338,80.2040816 L86.3636364,80.2040816" id="Line" stroke-width="3" stroke-linecap="square" sketch:type="MSShapeGroup"></path>
                <path d="M94.0350094,86.43258 L60.248004,86.7743543 L60.248004,99.7137681 L68.135692,99.7137681 L53.547834,119.029616 L38.8221593,99.7137681 L45.7295945,99.7137681 L45.7295945,74.0836663 L53.5910738,74.0836663 L38.5016693,53.6234455 L24.1772096,74.0836663 L31.1195543,74.0836663 L31.1195543,86.43258 L0.348107474,86.43258" id="Path" stroke-width="3" stroke-linecap="square" sketch:type="MSShapeGroup"></path>
                <path d="M8.01948052,31.2244898 L86.3636364,31.2244898" id="Path" stroke-width="3" stroke-linecap="square" fill="#D8D8D8" sketch:type="MSShapeGroup"></path>
                <path id="Path-38" sketch:type="MSShapeGroup" d=""></path>
                <path d="M32.583959,61.1790497 L32.583959,37.0798775 L40.1564402,37.2393176 L40.1564402,55.9524316" id="Path-39" stroke-width="3" sketch:type="MSShapeGroup"></path>
                <path d="M30.2272727,80.2040816 L6.78571429,80.2040816" id="Line" stroke-width="3" stroke-linecap="square" sketch:type="MSShapeGroup"></path>
            </g>
        </g>
    </g>
</svg>