<?xml version="1.0" encoding="UTF-8" standalone="no"?>
<svg width="91px" height="89px" viewBox="0 0 91 89" version="1.1" xmlns="http://www.w3.org/2000/svg" xmlns:xlink="http://www.w3.org/1999/xlink" xmlns:sketch="http://www.bohemiancoding.com/sketch/ns">
    <!-- Generator: Sketch 3.2.2 (9983) - http://www.bohemiancoding.com/sketch -->
    <title></title>
    <desc>Created with Sketch.</desc>
    <defs></defs>
    <g id="Page" stroke="none" stroke-width="1" fill="none" fill-rule="evenodd" sketch:type="MSPage">
        <g id="Artboard-1" sketch:type="MSArtboardGroup" transform="translate(-1239.000000, -2524.000000)" stroke="#FFFFFF" stroke-width="3">
            <path d="M1301.08791,2561.88462 C1301.08791,2555.51038 1298.79617,2550.05792 1294.21261,2545.52704 C1289.62906,2540.99617 1284.11318,2538.73077 1277.66484,2538.73077 C1271.21649,2538.73077 1265.70062,2540.99617 1261.11706,2545.52704 C1256.5335,2550.05792 1254.24176,2555.51038 1254.24176,2561.88462 C1254.24176,2568.25885 1256.5335,2573.71132 1261.11706,2578.24219 C1265.70062,2582.77306 1271.21649,2585.03846 1277.66484,2585.03846 C1284.11318,2585.03846 1289.62906,2582.77306 1294.21261,2578.24219 C1298.79617,2573.71132 1301.08791,2568.25885 1301.08791,2561.88462 L1301.08791,2561.88462 Z M1327.85714,2604.88462 C1327.85714,2606.67629 1327.19489,2608.22676 1325.87036,2609.53606 C1324.54584,2610.84536 1322.97734,2611.5 1321.16484,2611.5 C1319.28261,2611.5 1317.71412,2610.84536 1316.45931,2609.53606 L1298.52601,2591.86058 C1292.2868,2596.13303 1285.33314,2598.26923 1277.66484,2598.26923 C1272.68044,2598.26923 1267.91396,2597.31311 1263.36526,2595.40084 C1258.81656,2593.48857 1254.89532,2590.90446 1251.60143,2587.64844 C1248.30755,2584.39241 1245.69339,2580.51625 1243.75889,2576.01983 C1241.82438,2571.52342 1240.85714,2566.81172 1240.85714,2561.88462 C1240.85714,2556.95751 1241.82438,2552.24582 1243.75889,2547.7494 C1245.69339,2543.25298 1248.30755,2539.37682 1251.60143,2536.12079 C1254.89532,2532.86477 1258.81656,2530.28066 1263.36526,2528.36839 C1267.91396,2526.45612 1272.68044,2525.5 1277.66484,2525.5 C1282.64924,2525.5 1287.41571,2526.45612 1291.96441,2528.36839 C1296.51312,2530.28066 1300.43435,2532.86477 1303.72824,2536.12079 C1307.02212,2539.37682 1309.63628,2543.25298 1311.57078,2547.7494 C1313.50529,2552.24582 1314.47253,2556.95751 1314.47253,2561.88462 C1314.47253,2569.46478 1312.31149,2576.33851 1307.98935,2582.50601 L1325.92265,2600.23317 C1327.21232,2601.50802 1327.85714,2603.05848 1327.85714,2604.88462 L1327.85714,2604.88462 Z" id="" sketch:type="MSShapeGroup"></path>
        </g>
    </g>
</svg>